# Blender 4.4.3
# www.blender.org
mtllib cbox.mtl
o Cube
v 1.000000 1.000000 -1.000000
v 1.000000 -1.000000 -1.000000
v 1.000000 1.000000 1.000000
v 1.000000 -1.000000 1.000000
v -1.000000 1.000000 -1.000000
v -1.000000 -1.000000 -1.000000
v -1.000000 1.000000 1.000000
v -1.000000 -1.000000 1.000000
vn -0.0000 1.0000 -0.0000
vn -0.0000 -0.0000 1.0000
vn -1.0000 -0.0000 -0.0000
vn -0.0000 -1.0000 -0.0000
vn 1.0000 -0.0000 -0.0000
vn -0.0000 -0.0000 -1.0000
vt 0.000000 0.000000
vt 1.000000 0.000000
vt 1.000000 1.000000
vt 0.000000 1.000000
vt 1.000000 0.000000
vt 1.000000 1.000000
vt 0.000000 1.000000
vt 0.000000 0.000000
vt 1.000000 0.000000
vt 0.000000 0.000000
vt 0.998438 0.000000
vt 0.998438 1.000000
vt 0.001562 1.000000
vt 0.001562 0.000000
s 0
usemtl questionmark
f 4/5/2 3/6/2 7/7/2 8/8/2
f 8/9/3 7/3/3 5/4/3 6/10/3
f 2/11/5 1/12/5 3/13/5 4/14/5
f 6/9/6 5/3/6 1/4/6 2/10/6
usemtl emptycrate
f 1/1/1 5/2/1 7/3/1 3/4/1
f 6/1/4 2/2/4 4/3/4 8/4/4
